REM DIRINDEX 1\2,1\3,1\4,1\5
REM DIRNAME cjc004,folder01,folder02,folder03,folder04
TITLE ""
FILE "1Q_t_1891-1900.mp3" MP3
  TRACK 01 AUDIO
    TITLE "3:cjc004_6581"
    INDEX 01 00:00:00
  TRACK 02 AUDIO
    TITLE "0:"
    INDEX 01 00:00:68
  TRACK 03 AUDIO
    TITLE "4:cjc004_6582"
    INDEX 01 00:01:22
  TRACK 04 AUDIO
    TITLE "0:"
    INDEX 01 00:02:28
  TRACK 05 AUDIO
    TITLE "5:cjc004_6583"
    INDEX 01 00:02:49
  TRACK 06 AUDIO
    TITLE "0:"
    INDEX 01 00:07:00
  TRACK 07 AUDIO
    TITLE "3:cjc004_6584"
    INDEX 01 00:07:51
  TRACK 08 AUDIO
    TITLE "0:"
    INDEX 01 00:09:20
  TRACK 09 AUDIO
    TITLE "4:cjc004_6585"
    INDEX 01 00:09:42
  TRACK 10 AUDIO
    TITLE "0:"
    INDEX 01 00:11:23
  TRACK 11 AUDIO
    TITLE "5:cjc004_6586"
    INDEX 01 00:11:48
  TRACK 12 AUDIO
    TITLE "0:"
    INDEX 01 00:16:67
  TRACK 13 AUDIO
    TITLE "3:cjc004_6587"
    INDEX 01 00:17:39
  TRACK 14 AUDIO
    TITLE "0:"
    INDEX 01 00:18:66
  TRACK 15 AUDIO
    TITLE "4:cjc004_6588"
    INDEX 01 00:19:15
  TRACK 16 AUDIO
    TITLE "0:"
    INDEX 01 00:20:36
  TRACK 17 AUDIO
    TITLE "5:cjc004_6589"
    INDEX 01 00:20:57
  TRACK 18 AUDIO
    TITLE "0:"
    INDEX 01 00:25:66
  TRACK 19 AUDIO
    TITLE "3:cjc004_6590"
    INDEX 01 00:26:42
  TRACK 20 AUDIO
    TITLE "0:"
    INDEX 01 00:27:49
  TRACK 21 AUDIO
    TITLE "4:cjc004_6591"
    INDEX 01 00:28:02
  TRACK 22 AUDIO
    TITLE "0:"
    INDEX 01 00:29:23
  TRACK 23 AUDIO
    TITLE "5:cjc004_6592"
    INDEX 01 00:29:50
  TRACK 24 AUDIO
    TITLE "0:"
    INDEX 01 00:34:73
  TRACK 25 AUDIO
    TITLE "3:cjc004_6593"
    INDEX 01 00:35:53
  TRACK 26 AUDIO
    TITLE "0:"
    INDEX 01 00:36:60
  TRACK 27 AUDIO
    TITLE "4:cjc004_6594"
    INDEX 01 00:37:12
  TRACK 28 AUDIO
    TITLE "0:"
    INDEX 01 00:38:26
  TRACK 29 AUDIO
    TITLE "5:cjc004_6595"
    INDEX 01 00:38:55
  TRACK 30 AUDIO
    TITLE "0:"
    INDEX 01 00:42:74
  TRACK 31 AUDIO
    TITLE "3:cjc004_6596"
    INDEX 01 00:43:50
  TRACK 32 AUDIO
    TITLE "0:"
    INDEX 01 00:44:60
  TRACK 33 AUDIO
    TITLE "4:cjc004_6597"
    INDEX 01 00:45:14
  TRACK 34 AUDIO
    TITLE "0:"
    INDEX 01 00:46:27
  TRACK 35 AUDIO
    TITLE "5:cjc004_6598"
    INDEX 01 00:46:51
  TRACK 36 AUDIO
    TITLE "0:"
    INDEX 01 00:51:15
  TRACK 37 AUDIO
    TITLE "3:cjc004_6599"
    INDEX 01 00:51:69
  TRACK 38 AUDIO
    TITLE "0:"
    INDEX 01 00:53:02
  TRACK 39 AUDIO
    TITLE "4:cjc004_6600"
    INDEX 01 00:53:31
  TRACK 40 AUDIO
    TITLE "0:"
    INDEX 01 00:54:48
  TRACK 41 AUDIO
    TITLE "5:cjc004_6601"
    INDEX 01 00:54:74
  TRACK 42 AUDIO
    TITLE "0:"
    INDEX 01 00:59:55
  TRACK 43 AUDIO
    TITLE "3:cjc004_6602"
    INDEX 01 01:00:33
  TRACK 44 AUDIO
    TITLE "0:"
    INDEX 01 01:01:52
  TRACK 45 AUDIO
    TITLE "4:cjc004_6603"
    INDEX 01 01:02:03
  TRACK 46 AUDIO
    TITLE "0:"
    INDEX 01 01:03:20
  TRACK 47 AUDIO
    TITLE "5:cjc004_6604"
    INDEX 01 01:03:41
  TRACK 48 AUDIO
    TITLE "0:"
    INDEX 01 01:07:55
  TRACK 49 AUDIO
    TITLE "3:cjc004_6605"
    INDEX 01 01:08:35
  TRACK 50 AUDIO
    TITLE "0:"
    INDEX 01 01:09:38
  TRACK 51 AUDIO
    TITLE "4:cjc004_6606"
    INDEX 01 01:09:61
  TRACK 52 AUDIO
    TITLE "0:"
    INDEX 01 01:10:65
  TRACK 53 AUDIO
    TITLE "5:cjc004_6607"
    INDEX 01 01:11:15
  TRACK 54 AUDIO
    TITLE "0:"
    INDEX 01 01:16:11
  TRACK 55 AUDIO
    TITLE "3:cjc004_6608"
    INDEX 01 01:16:63
  TRACK 56 AUDIO
    TITLE "0:"
    INDEX 01 01:18:07
  TRACK 57 AUDIO
    TITLE "4:cjc004_6609"
    INDEX 01 01:18:37
  TRACK 58 AUDIO
    TITLE "0:"
    INDEX 01 01:19:52
  TRACK 59 AUDIO
    TITLE "5:cjc004_6610"
    INDEX 01 01:20:00
  TRACK 60 AUDIO
    TITLE "0:"
    INDEX 01 01:25:15
